<svg width="218" height="35" viewBox="0 0 218 35" fill="none" xmlns="http://www.w3.org/2000/svg">
<path d="M21.1562 4.40625H19.6094H19.1875C18.0312 4.40625 17.4531 3.90625 17.4531 2.90625C17.4531 2.27083 17.6875 1.73958 18.1562 1.3125C18.6354 0.885417 19.2188 0.671875 19.9062 0.671875H20.3281H24.9062C27.9688 0.671875 30.3177 1.40104 31.9531 2.85938C33.5885 4.31771 34.4062 6.41667 34.4062 9.15625C34.4062 13.3333 33.0156 17.1615 30.2344 20.6406C28.6615 22.599 26.8802 24.026 24.8906 24.9219C22.9115 25.8177 20.5365 26.2656 17.7656 26.2656H16.6719L16.4844 26.7031C15.7552 28.3281 15.1823 29.4688 14.7656 30.125C14.349 30.7812 13.8073 31.4167 13.1406 32.0312C11.401 33.625 9.40625 34.4219 7.15625 34.4219C5.30208 34.4219 3.78125 33.8698 2.59375 32.7656C1.39583 31.6719 0.796875 30.276 0.796875 28.5781C0.796875 27.5365 1.05208 26.5573 1.5625 25.6406C2.07292 24.7344 2.76562 24.026 3.64062 23.5156C4.77604 22.8594 6.3125 22.5312 8.25 22.5312H13.7969L21.1562 4.40625ZM18.1875 22.5312H18.8125C22.0417 22.5312 24.7448 21.099 26.9219 18.2344C27.974 16.8594 28.8021 15.3698 29.4062 13.7656C30.0208 12.1615 30.3281 10.6771 30.3281 9.3125C30.3281 7.79167 29.901 6.59375 29.0469 5.71875C28.1927 4.84375 27.0312 4.40625 25.5625 4.40625L18.1875 22.5312ZM12.2812 26.2656H8.14062C6.09896 26.2656 5.07812 26.9896 5.07812 28.4375C5.07812 29.0312 5.30208 29.5312 5.75 29.9375C6.19792 30.3438 6.74479 30.5469 7.39062 30.5469C8.34896 30.5469 9.26042 30.1667 10.125 29.4062C10.9896 28.6562 11.7083 27.6094 12.2812 26.2656ZM38.4688 17.4219C38.4688 18.2031 39.0573 18.5938 40.2344 18.5938H44.875C46.1875 18.5938 46.8438 19.0573 46.8438 19.9844C46.8438 20.6198 46.6094 21.1146 46.1406 21.4688C45.6823 21.8229 45.0365 22 44.2031 22H39.7812C38.1354 22 36.8802 21.5938 36.0156 20.7812C35.1615 19.9688 34.7344 18.7812 34.7344 17.2188C34.7344 15.2083 35.4115 13.474 36.7656 12.0156C38.1302 10.5573 39.75 9.82812 41.625 9.82812C42.9896 9.82812 44.0833 10.1875 44.9062 10.9062C45.7396 11.6146 46.1562 12.5521 46.1562 13.7188C46.1562 15.125 45.5833 16.1667 44.4375 16.8438C43.8021 17.2292 42.8542 17.4219 41.5938 17.4219H38.4688ZM39.2188 14.5781H40.9375C42.0521 14.5781 42.5938 14.3333 42.5625 13.8438C42.5312 13.2917 42.1719 13.0156 41.4844 13.0156C40.526 13.0156 39.7708 13.5365 39.2188 14.5781ZM52.6406 14.3125L52.3438 15.0312C51.8854 16.0625 51.2344 16.5781 50.3906 16.5781C49.9635 16.5781 49.5781 16.4323 49.2344 16.1406C48.901 15.8385 48.7344 15.4948 48.7344 15.1094C48.7344 14.7448 48.8854 14.2604 49.1875 13.6562L51.2656 9.4375C51.776 8.42708 52.4115 7.92188 53.1719 7.92188C53.5781 7.92188 53.9271 8.05729 54.2188 8.32812C54.5104 8.58854 54.6562 8.90104 54.6562 9.26562C54.6562 9.35938 54.625 9.5625 54.5625 9.875C54.5208 10.1042 54.5 10.3073 54.5 10.4844C54.5 11.1406 54.7448 11.8125 55.2344 12.5L56.125 13.7344C57.0312 14.9948 57.4844 16.2135 57.4844 17.3906C57.4844 18.7031 56.9948 19.8021 56.0156 20.6875C55.0365 21.5625 53.8177 22 52.3594 22H49.0938C47.7708 22 47.1094 21.5417 47.1094 20.625C47.1094 19.9896 47.3438 19.4948 47.8125 19.1406C48.2812 18.776 48.9271 18.5938 49.75 18.5938H51.5625C53.0104 18.5938 53.7344 18.0677 53.7344 17.0156C53.7344 16.6302 53.599 16.1771 53.3281 15.6562L52.6406 14.3125ZM66.1406 10.7188C67.2344 10.125 68.1354 9.82812 68.8438 9.82812C69.8438 9.82812 70.6615 10.1094 71.2969 10.6719C71.9427 11.224 72.2656 11.9323 72.2656 12.7969C72.2656 13.3177 72.1406 13.8854 71.8906 14.5L70.25 18.5938H72.0469C73.3594 18.5938 74.0156 19.0573 74.0156 19.9844C74.0156 20.6198 73.7812 21.1146 73.3125 21.4688C72.8542 21.8229 72.2083 22 71.375 22H68.2344C67.5677 22 67.0052 21.8125 66.5469 21.4375C66.099 21.0521 65.875 20.5833 65.875 20.0312C65.875 19.6562 65.9948 19.1771 66.2344 18.5938L67.6719 15.0625C67.849 14.6146 67.9375 14.276 67.9375 14.0469C67.9375 13.4531 67.5417 13.1562 66.75 13.1562C65.6875 13.1562 64.7917 14.0625 64.0625 15.875L62.3125 20.1719C61.7604 21.5365 60.9427 22.2188 59.8594 22.2188C59.4323 22.2188 59.0677 22.0833 58.7656 21.8125C58.4635 21.5417 58.3125 21.2135 58.3125 20.8281C58.3125 20.5365 58.3906 20.1927 58.5469 19.7969L58.7188 19.375L65.5156 2.60938C66.1094 1.17188 66.9219 0.453125 67.9531 0.453125C68.3802 0.453125 68.7448 0.598958 69.0469 0.890625C69.3594 1.17188 69.5156 1.51562 69.5156 1.92188C69.5156 2.25521 69.3802 2.75 69.1094 3.40625L66.1406 10.7188ZM85.2969 18.5938H87.0156C88.3281 18.5938 88.9844 19.0521 88.9844 19.9688C88.9844 20.6042 88.75 21.1042 88.2812 21.4688C87.8125 21.8229 87.1667 22 86.3438 22H84.3438C83.4479 22 82.8385 21.651 82.5156 20.9531C81.7344 21.651 80.9792 22 80.25 22H78.4688C77.3229 22 76.3958 21.5938 75.6875 20.7812C74.9896 19.9583 74.6406 18.8854 74.6406 17.5625C74.6406 15.5625 75.3281 13.776 76.7031 12.2031C78.0885 10.6198 79.651 9.82812 81.3906 9.82812C82.724 9.82812 83.6979 10.2917 84.3125 11.2188C84.8333 10.4375 85.5156 10.0469 86.3594 10.0469C86.8177 10.0469 87.1979 10.1927 87.5 10.4844C87.8125 10.776 87.9688 11.1354 87.9688 11.5625C87.9688 11.8542 87.8854 12.2031 87.7188 12.6094L87.5469 13.0312L85.2969 18.5938ZM79.625 18.6719H80.0156C80.8698 18.6719 81.4375 18.3229 81.7188 17.625L82.8125 14.9219C82.9583 14.5677 83.0312 14.2708 83.0312 14.0312C83.0312 13.75 82.8906 13.5052 82.6094 13.2969C82.3385 13.0885 82.0104 12.9844 81.625 12.9844C80.8646 12.9844 80.125 13.4271 79.4062 14.3125C78.6875 15.1979 78.3281 16.1146 78.3281 17.0625C78.3281 18.1354 78.7604 18.6719 79.625 18.6719ZM101.172 18.5938H103.047C104.37 18.5938 105.031 19.0573 105.031 19.9844C105.031 20.6198 104.797 21.1146 104.328 21.4688C103.859 21.8229 103.214 22 102.391 22H99.125C98.4896 22 97.9531 21.8073 97.5156 21.4219C97.0885 21.0365 96.875 20.5521 96.875 19.9688C96.875 19.6146 97.0208 19.0833 97.3125 18.375L98.6875 14.9688C98.8333 14.6146 98.9115 14.3281 98.9219 14.1094C98.9323 13.8594 98.8281 13.6458 98.6094 13.4688C98.401 13.2917 98.1302 13.2031 97.7969 13.2031C96.724 13.2031 95.8594 14.0104 95.2031 15.625L93.3594 20.1562C92.8073 21.5312 91.9844 22.2188 90.8906 22.2188C90.4427 22.2188 90.0625 22.0833 89.75 21.8125C89.4375 21.5417 89.2812 21.2083 89.2812 20.8125C89.2812 20.5208 89.3646 20.1719 89.5312 19.7656L89.7031 19.3438L92.8594 11.5625C93.2656 10.5521 93.9583 10.0469 94.9375 10.0469C95.7396 10.0469 96.3125 10.401 96.6562 11.1094C97.7708 10.2552 98.8333 9.82812 99.8438 9.82812C100.823 9.82812 101.63 10.1094 102.266 10.6719C102.901 11.2344 103.219 11.9479 103.219 12.8125C103.219 13.2917 103.104 13.8177 102.875 14.3906L101.172 18.5938ZM137.359 14H133.031L127.859 22.9531C125.422 27.1927 122.531 29.3125 119.188 29.3125C117.135 29.3125 115.411 28.5729 114.016 27.0938C112.63 25.625 111.938 23.8021 111.938 21.625C111.938 19.8542 112.474 18.151 113.547 16.5156C114.62 14.8698 116.083 13.5052 117.938 12.4219C119.323 11.6302 120.859 11.0729 122.547 10.75C124.234 10.4271 126.479 10.2656 129.281 10.2656H130.438L131.672 8C133.391 4.84375 135.49 2.73958 137.969 1.6875C139.562 1.01042 141.646 0.671875 144.219 0.671875C144.875 0.671875 145.391 0.817708 145.766 1.10938C146.141 1.40104 146.328 1.80729 146.328 2.32812C146.328 2.56771 146.266 2.84896 146.141 3.17188L146 3.53125L143.312 10.2656H144.5H144.906C146.073 10.2656 146.656 10.7708 146.656 11.7812C146.656 12.3958 146.417 12.9219 145.938 13.3594C145.458 13.7865 144.875 14 144.188 14H143.766H141.797L140.062 18.2656H142.609H143.016C144.182 18.2656 144.766 18.7656 144.766 19.7656C144.766 20.3906 144.526 20.9219 144.047 21.3594C143.568 21.7865 142.984 22 142.297 22H141.875H138.531C137.635 22 136.901 21.7708 136.328 21.3125C135.766 20.8438 135.484 20.2396 135.484 19.5C135.484 18.9271 135.698 18.1146 136.125 17.0625L137.359 14ZM138.891 10.2656L141.141 4.71875C140.036 4.79167 139.104 5.14583 138.344 5.78125C137.594 6.40625 136.734 7.54688 135.766 9.20312L135.125 10.2656H138.891ZM128.297 14H126.969C123.99 14 121.625 14.5521 119.875 15.6562C118.76 16.3646 117.87 17.25 117.203 18.3125C116.547 19.375 116.219 20.4479 116.219 21.5312C116.219 22.5208 116.536 23.3646 117.172 24.0625C117.807 24.7708 118.578 25.125 119.484 25.125C121.057 25.125 122.448 24.0833 123.656 22L128.297 14ZM152.234 14.3125L151.938 15.0312C151.479 16.0625 150.828 16.5781 149.984 16.5781C149.557 16.5781 149.172 16.4323 148.828 16.1406C148.495 15.8385 148.328 15.4948 148.328 15.1094C148.328 14.7448 148.479 14.2604 148.781 13.6562L150.859 9.4375C151.37 8.42708 152.005 7.92188 152.766 7.92188C153.172 7.92188 153.521 8.05729 153.812 8.32812C154.104 8.58854 154.25 8.90104 154.25 9.26562C154.25 9.35938 154.219 9.5625 154.156 9.875C154.115 10.1042 154.094 10.3073 154.094 10.4844C154.094 11.1406 154.339 11.8125 154.828 12.5L155.719 13.7344C156.625 14.9948 157.078 16.2135 157.078 17.3906C157.078 18.7031 156.589 19.8021 155.609 20.6875C154.63 21.5625 153.411 22 151.953 22H148.688C147.365 22 146.703 21.5417 146.703 20.625C146.703 19.9896 146.938 19.4948 147.406 19.1406C147.875 18.776 148.521 18.5938 149.344 18.5938H151.156C152.604 18.5938 153.328 18.0677 153.328 17.0156C153.328 16.6302 153.193 16.1771 152.922 15.6562L152.234 14.3125ZM168.891 18.5938H170.609C171.922 18.5938 172.578 19.0521 172.578 19.9688C172.578 20.6042 172.344 21.1042 171.875 21.4688C171.406 21.8229 170.76 22 169.938 22H167.938C167.042 22 166.432 21.651 166.109 20.9531C165.328 21.651 164.573 22 163.844 22H162.062C160.917 22 159.99 21.5938 159.281 20.7812C158.583 19.9583 158.234 18.8854 158.234 17.5625C158.234 15.5625 158.922 13.776 160.297 12.2031C161.682 10.6198 163.245 9.82812 164.984 9.82812C166.318 9.82812 167.292 10.2917 167.906 11.2188C168.427 10.4375 169.109 10.0469 169.953 10.0469C170.411 10.0469 170.792 10.1927 171.094 10.4844C171.406 10.776 171.562 11.1354 171.562 11.5625C171.562 11.8542 171.479 12.2031 171.312 12.6094L171.141 13.0312L168.891 18.5938ZM163.219 18.6719H163.609C164.464 18.6719 165.031 18.3229 165.312 17.625L166.406 14.9219C166.552 14.5677 166.625 14.2708 166.625 14.0312C166.625 13.75 166.484 13.5052 166.203 13.2969C165.932 13.0885 165.604 12.9844 165.219 12.9844C164.458 12.9844 163.719 13.4271 163 14.3125C162.281 15.1979 161.922 16.1146 161.922 17.0625C161.922 18.1354 162.354 18.6719 163.219 18.6719ZM184.766 18.5938H186.641C187.964 18.5938 188.625 19.0573 188.625 19.9844C188.625 20.6198 188.391 21.1146 187.922 21.4688C187.453 21.8229 186.807 22 185.984 22H182.719C182.083 22 181.547 21.8073 181.109 21.4219C180.682 21.0365 180.469 20.5521 180.469 19.9688C180.469 19.6146 180.615 19.0833 180.906 18.375L182.281 14.9688C182.427 14.6146 182.505 14.3281 182.516 14.1094C182.526 13.8594 182.422 13.6458 182.203 13.4688C181.995 13.2917 181.724 13.2031 181.391 13.2031C180.318 13.2031 179.453 14.0104 178.797 15.625L176.953 20.1562C176.401 21.5312 175.578 22.2188 174.484 22.2188C174.036 22.2188 173.656 22.0833 173.344 21.8125C173.031 21.5417 172.875 21.2083 172.875 20.8125C172.875 20.5208 172.958 20.1719 173.125 19.7656L173.297 19.3438L176.453 11.5625C176.859 10.5521 177.552 10.0469 178.531 10.0469C179.333 10.0469 179.906 10.401 180.25 11.1094C181.365 10.2552 182.427 9.82812 183.438 9.82812C184.417 9.82812 185.224 10.1094 185.859 10.6719C186.495 11.2344 186.812 11.9479 186.812 12.8125C186.812 13.2917 186.698 13.8177 186.469 14.3906L184.766 18.5938ZM198.75 15.3906L201.172 19.1875C201.474 19.6562 201.625 20.0417 201.625 20.3438C201.625 20.8229 201.422 21.2552 201.016 21.6406C200.62 22.026 200.172 22.2188 199.672 22.2188C199.234 22.2188 198.854 21.9844 198.531 21.5156L198.344 21.2344L194.719 15.8125L192.969 20.1406C192.406 21.526 191.583 22.2188 190.5 22.2188C190.052 22.2188 189.672 22.0833 189.359 21.8125C189.057 21.5312 188.906 21.1927 188.906 20.7969C188.906 20.4948 188.99 20.1458 189.156 19.75L189.328 19.3281L196.016 2.84375L196.188 2.42188C196.667 1.25521 197.432 0.671875 198.484 0.671875C198.922 0.671875 199.297 0.817708 199.609 1.10938C199.922 1.40104 200.078 1.75 200.078 2.15625C200.078 2.46875 199.995 2.82812 199.828 3.23438L199.656 3.65625L195.672 13.4688L199.188 10.8594C199.917 10.3177 200.542 10.0469 201.062 10.0469C201.5 10.0469 201.865 10.1875 202.156 10.4688C202.448 10.75 202.594 11.099 202.594 11.5156C202.594 12.2135 202.208 12.849 201.438 13.4219L201.078 13.6875L198.75 15.3906ZM213.672 18.5938H215.391C216.703 18.5938 217.359 19.0521 217.359 19.9688C217.359 20.6042 217.125 21.1042 216.656 21.4688C216.188 21.8229 215.542 22 214.719 22H212.719C211.823 22 211.214 21.651 210.891 20.9531C210.109 21.651 209.354 22 208.625 22H206.844C205.698 22 204.771 21.5938 204.062 20.7812C203.365 19.9583 203.016 18.8854 203.016 17.5625C203.016 15.5625 203.703 13.776 205.078 12.2031C206.464 10.6198 208.026 9.82812 209.766 9.82812C211.099 9.82812 212.073 10.2917 212.688 11.2188C213.208 10.4375 213.891 10.0469 214.734 10.0469C215.193 10.0469 215.573 10.1927 215.875 10.4844C216.188 10.776 216.344 11.1354 216.344 11.5625C216.344 11.8542 216.26 12.2031 216.094 12.6094L215.922 13.0312L213.672 18.5938ZM208 18.6719H208.391C209.245 18.6719 209.812 18.3229 210.094 17.625L211.188 14.9219C211.333 14.5677 211.406 14.2708 211.406 14.0312C211.406 13.75 211.266 13.5052 210.984 13.2969C210.714 13.0885 210.385 12.9844 210 12.9844C209.24 12.9844 208.5 13.4271 207.781 14.3125C207.062 15.1979 206.703 16.1146 206.703 17.0625C206.703 18.1354 207.135 18.6719 208 18.6719Z" fill="url(#paint0_linear_89_474)"/>
<defs>
<linearGradient id="paint0_linear_89_474" x1="4" y1="14" x2="217" y2="14" gradientUnits="userSpaceOnUse">
<stop stop-color="#088DF7"/>
<stop offset="1" stop-color="#B862FC"/>
</linearGradient>
</defs>
</svg>
